<?xml version="1.0" encoding="UTF-8"?>
<!-- Generator: Adobe Illustrator 18.1.1, SVG Export Plug-In . SVG Version: 6.00 Build 0)  -->
<svg version="1.0" xmlns="http://www.w3.org/2000/svg" xmlns:xlink="http://www.w3.org/1999/xlink" x="0px" y="0px" viewBox="0 0 157.7 94.7" style="enable-background:new 0 0 157.7 94.7;" xml:space="preserve">
<g id="paillasse">
</g>
<g id="Calque_5" style="display:none;">
</g>
<g id="Calque_1">
</g>
<g id="Calque_3">
	<g>
		
			<linearGradient id="SVGID_1_" gradientUnits="userSpaceOnUse" x1="10.4114" y1="24.1581" x2="93.7458" y2="24.1581" gradientTransform="matrix(1 8.080583e-03 -8.080583e-03 1 -9.7073 -9.8445)">
			<stop offset="0" style="stop-color:#009FE3"/>
			<stop offset="1" style="stop-color:#E30613"/>
		</linearGradient>
		<path style="fill:#FFFFFF;stroke:url(#SVGID_1_);stroke-width:0.7191;stroke-linejoin:round;stroke-miterlimit:10;" d="M0.8,29    l0-2c0-2.1,1.5-4.7,3.4-5.8L38.8,1.3c1.8-1.1,4.9-1.1,6.7,0l34.6,20c1.8,1.1,3.3,3.7,3.3,5.8l0,2.5"/>
		<g>
			
				<linearGradient id="SVGID_2_" gradientUnits="userSpaceOnUse" x1="10.6481" y1="88.6664" x2="93.9825" y2="88.6664" gradientTransform="matrix(1 8.080583e-03 -8.080583e-03 1 -9.7073 -9.8445)">
				<stop offset="0" style="stop-color:#E30613"/>
				<stop offset="1" style="stop-color:#009FE3"/>
			</linearGradient>
			<path style="fill:#FFFFFF;stroke:url(#SVGID_2_);stroke-width:0.7191;stroke-linejoin:round;stroke-miterlimit:10;" d="M83.3,65     l0,2c0,2.1-1.5,4.7-3.4,5.8L45.3,92.7c-1.8,1.1-4.9,1.1-6.7,0L4,72.7c-1.8-1.1-3.3-3.7-3.3-5.8l0-2.5"/>
			
				<line style="fill:#FFFFFF;stroke:#1D71B8;stroke-width:0.7191;stroke-linejoin:round;stroke-miterlimit:10;" x1="0.7" y1="64.3" x2="0.8" y2="29"/>
			
				<line style="opacity:0.9;fill:#FFFFFF;stroke:#E30613;stroke-width:0.7191;stroke-linejoin:round;stroke-miterlimit:10;" x1="83.4" y1="29.6" x2="83.3" y2="65"/>
			
				<linearGradient id="SVGID_3_" gradientUnits="userSpaceOnUse" x1="48.956" y1="88.6664" x2="93.9825" y2="88.6664" gradientTransform="matrix(1 8.080583e-03 -8.080583e-03 1 -9.7073 -9.8445)">
				<stop offset="0" style="stop-color:#E30613"/>
				<stop offset="1" style="stop-color:#009FE3"/>
			</linearGradient>
			<path style="fill:#FFFFFF;stroke:url(#SVGID_3_);stroke-width:0.7191;stroke-linejoin:round;stroke-miterlimit:10;" d="     M38.6,92.7c1.8,1.1,4.9,1.1,6.7,0l34.6-19.9c1.8-1.1,3.4-3.7,3.4-5.8l0-2"/>
			
				<linearGradient id="SVGID_4_" gradientUnits="userSpaceOnUse" x1="11.0076" y1="74.0963" x2="11.0076" y2="74.0963" gradientTransform="matrix(1 8.080583e-03 -8.080583e-03 1 -9.7073 -9.8445)">
				<stop offset="0" style="stop-color:#E30613"/>
				<stop offset="1" style="stop-color:#009FE3"/>
			</linearGradient>
			<path style="fill:#FFFFFF;stroke:url(#SVGID_4_);stroke-width:0.7191;stroke-linejoin:round;stroke-miterlimit:10;" d="M0.7,64.3     "/>
			
				<line style="fill:#FFFFFF;stroke:#1D71B8;stroke-width:0.7191;stroke-linejoin:round;stroke-miterlimit:10;" x1="0.8" y1="29" x2="0.7" y2="64.3"/>
		</g>
	</g>
	<g>
		<polygon style="fill:#0091CF;" points="71.7,61 13.4,60.9 13.4,60.9 42.6,12.3 42.6,12.3 71.7,61   "/>
	</g>
	
		<linearGradient id="SVGID_5_" gradientUnits="userSpaceOnUse" x1="41.3654" y1="76.9281" x2="63.0151" y2="76.9281" gradientTransform="matrix(1 8.080583e-03 -8.080583e-03 1 -9.7073 -9.8445)">
		<stop offset="0" style="stop-color:#E30613"/>
		<stop offset="1" style="stop-color:#009FE3"/>
	</linearGradient>
	<path style="fill:none;stroke:url(#SVGID_5_);stroke-width:3.595318e-02;stroke-linejoin:round;stroke-miterlimit:10;" d="   M52.7,64.8l-9,5.2c-0.9,0.5-2.4,0.5-3.4,0l-9.2-5.3"/>
	<g>
		<polygon style="fill:#009FE3;" points="59.4,40.3 42.5,80.4 32.8,73.9 22.4,45.9   "/>
	</g>
	<g>
		<polygon style="fill:#E30613;" points="32.8,73.9 13.4,60.9 27.1,58.4   "/>
	</g>
	<g>
		<polygon style="fill:#1D71B8;" points="71.7,61 42.5,80.4 59.4,40.3   "/>
	</g>
	<g>
		<polygon style="fill:#0097D2;" points="13.4,31.7 22.4,45.9 31.1,31.6 23.2,25.3   "/>
	</g>
	<g>
		<polygon style="fill:#1D71B8;" points="13.4,60.9 22.4,45.9 13.4,31.7   "/>
	</g>
	<g>
		<polygon style="fill:#3779BD;" points="42.6,12.3 23.2,25.3 31.1,31.6   "/>
	</g>
	<g>
		<polygon style="fill:#009FE3;" points="42.6,12.3 42.9,33.9 27.7,37.1   "/>
	</g>
	<g>
		<g>
			<polygon style="fill:#E6332A;" points="71.9,31.7 62.8,46 54.2,31.7 62.1,25.3    "/>
		</g>
		<g>
			<polygon style="fill:#BE1622;" points="71.7,61 62.8,46 71.9,31.7    "/>
		</g>
		<g>
			<polygon style="fill:#E30613;" points="42.6,12.3 62.1,25.3 54.2,31.7    "/>
		</g>
	</g>
	<g>
		<path style="fill:#FFFFFF;" d="M48.4,68.2c0.3-0.2,0.7-0.2,1.1-0.3c1.4,0,2.8,0.4,4.2,0.6c0.2,0,0.3,0.1,0.5,0.2    c0.5,0.1,1.1,0.1,1.6-0.1c0.6-0.2,1.2-0.5,1.5-1.2c0.2-0.6,0.4-1.2,0.1-1.8c-0.5-0.7,0.5-1,0.8-1.5c0.2-0.4-0.2-0.7-0.2-1.1    c-0.1-0.2-0.4-0.1-0.6-0.3c0.6-0.2,1.5-0.7,1.1-1.5c-0.2-0.4-0.7-1.1-0.2-1.5c0.6-0.3,1.5-0.2,1.7-0.8c0.4-1-0.5-1.8-1-2.6    c-0.2-0.5-0.6-0.8-0.9-1.3c-0.3-0.6-0.7-1.1-0.9-1.7c-0.2-0.7,0.1-1.2,0.1-1.9c0.1-1.2-0.2-2.5-0.6-3.7c-0.2-0.6-0.3-1.2-0.6-1.8    c-0.1-0.3-0.2-0.7-0.4-1c-0.1-0.2-0.1-0.4,0-0.6c0.3-0.2,0.7-0.5,1-0.8c0.2-0.4,0.1-1-0.3-1.2c-0.6-0.2-0.5,0.6-0.9,0.7    c-0.1,0-0.2,0-0.2,0c-0.1-0.2,0.1-0.3,0.2-0.5c0-0.1,0-0.2-0.1-0.2c-0.3,0-0.7-0.1-0.7-0.2c-0.8-1.1-2-1.7-3.2-2.2    c0.3,0.1,0.7,0.2,1,0.2c0.6,0.1,1.2,0.1,1.7-0.2c0.4-0.2,0.5-0.8,0.7-1.2c0.2-0.3-0.1-0.8-0.2-1.1c-0.4-0.6-6.8-8-21.6-1.3l0,0    c-0.6,0.2-2,0.9-2.6,1.7c-0.7,0.8-1.3,1.6-1.6,2.6c-1.1,0.7-1.7,1.6-2.3,2.6c-0.7,1.4-1.8,2.6-1.6,4.2c0.2,1.3,0.5,2.5,0.7,3.9    c0.1,0.5,0.2,0.9,0.3,1.4c0.2,0.5,0,1.1,0.2,1.5c0.2,0.2,0.1,0.6,0.4,0.7c0,0.1,0,0.2,0,0.3c0.1,0.1,0.1,0.2,0.2,0.2    c0,0.1,0,0.2,0,0.3c0.7,0.8,1.5,1.6,1.9,2.5c0.2,0.5-0.8,0.2-1.2,0.1c-0.8-0.4-1.3-1.1-2-1.6c0,0-0.1,0.1-0.1,0.2    c0.3,0.6,1.6,1.3,0.9,1.7c-0.3,0.2-0.7-0.2-1.1,0.1c-0.1,0.2,0,0.3,0,0.5c-0.5-0.3-1-0.2-1.5-0.3c-0.3-0.1-0.4-0.7-0.8-0.7    c-1.1-0.2-2-0.5-3.1-0.6c-1.5-0.2-2.9-0.4-4.3-0.2c-1.3,0.1-2.3,1.1-3.1,2c0,0.1,0,0.2,0,0.2c0.6,0.1,0.8-0.4,1.3-0.6    c0.8-0.2,1.6-0.5,2.4-0.7c1.2-0.2,2.4-0.6,3.5-0.5c0.2,0,0.6-0.1,0.8,0c-1.5-0.1-2.8,0.4-4.2,0.8c-1,0.3-2,0.3-2.9,0.8    c2.1-0.1,4.3,0.2,6.3,0.9c0.7,0.2,1.4,0.6,2,1c0.3,0.2,0.5,0.5,0.8,0.7c0.4,0.2,1,0.2,1.4,0.1c0.1,0,0.3,0,0.4,0    c1.2-0.3,2.5-0.7,3.4-1.6c0,0.1,0.1,0.1,0.2,0.1c-0.2,0.7-0.2,1.4-0.7,2c0,0.1-0.1,0.2,0.1,0.3c0.1,0,0.1,0,0.2,0    c-0.1,0-0.2,0-0.2,0.1c0,0.2,0.2,0,0.3,0.2c-0.4,0.1-0.8,0.2-1.1,0.5c0,0.1,0.2,0.1,0.2,0.1c-0.2,0.2-0.4,0.1-0.5,0.2    c0,0,0.1,0.1,0.2,0.1c-0.1,0-0.2,0-0.2,0.1c0,0.1,0,0.2,0,0.2c-0.2,0-0.3,0.2-0.5,0.2c0.3,0.2,0.6,0,0.9,0    c-0.9,0.3-1.6,0.8-2.5,1.1c-0.2,0,0,0.2-0.2,0.2c0.2,0.2,0.4-0.1,0.7-0.1c-1.1,0.7-2.3,1.2-3.5,2c0,0-0.2,0.2-0.2,0.3    c-0.1,0-0.2,0-0.3,0c-0.2,0.1-0.1,0.3-0.2,0.5c0.4,0.2,0.9-0.3,1.1,0c0.1,0-0.2,0.1-0.3,0.1c-0.1,0-0.1,0.2-0.2,0.2    c-0.1,0-0.2,0-0.2,0c-0.2,0.2-0.3,0.2-0.3,0.5c-0.2,0-0.3,0-0.4,0.2c1.8-0.2,3.7-0.1,5.4-1c1.3-0.7,2.5-1.6,3.6-2.7    c0,0,0.1,0.1,0.1,0.2c-0.2,0.8-0.7,1.4-1.4,1.9c-0.5,0.2-0.8,0.7-1.2,0.8c-0.2,0.2-0.5,0.3-0.7,0.5c-3,1.1-6.6,0.6-9.3,2.6    c0-0.1-0.1-0.1-0.2-0.1c-0.2,0.2-0.4,0.2-0.5,0.4c0,0.2,0.2,0.1,0.3,0.1c0.5-0.3,1-0.6,1.6-0.7c-0.5,0.2-0.9,0.5-1.4,0.8h3.3    c1.1-0.2,2.2-0.5,3.3-0.6c0.7,0,1.3,0.1,2-0.1c0.5-0.1,1-0.4,1.5-0.6c0,0.1,0,0.1,0,0.2c1.2-0.5,2.1-1.6,3.4-2    c0.1,0,0.2,0.2,0.4,0.1c0.7-0.7,1.6-1.4,2.6-1.2c0,0.1,0,0.2,0.1,0.2c0,0,0,0,0.1,0c0,0,0.1-0.1,0.1-0.1c0,0.1,0,0.1-0.1,0.1    c-0.3,0.2-0.6,0.4-0.9,0.7c-0.1,0.1,0,0.2,0.1,0.2c0.4-0.2,0.7-0.5,1.1-0.7c-0.1,0.1-0.1,0.2-0.2,0.3c-1.4,1.1-2.5,2.3-3.7,3.6    l10.5,7C40.1,78.5,46.9,69.6,48.4,68.2z M52.5,50.9c0.4-0.1,0.8-0.3,1.2-0.3c0.5-0.1,1-0.2,1.4-0.1c0.4,0.2,1.1,0.2,1.1,0.4    c0.2,0.5-0.2,1-0.7,1.3c-0.1,0.2,0.2,0.2,0.2,0.4c-0.1,0.2-0.3,0.2-0.5,0.2c-0.2,0.1-0.3,0.3-0.5,0.5c0.2,0,0,0.2,0.2,0.2    c-0.3,0.4,0.2,1.2-0.3,1.4c-0.6,0.2-1.2,0.2-1.9,0c0.3-0.1,0.7,0.1,1-0.2c0-0.1,0-0.2,0-0.3s-0.1-0.1-0.2-0.1    c-0.1,0.1-0.2,0.1-0.2,0.1c0-0.2-0.2-0.3-0.2-0.3c-0.5,0.1-0.9-0.2-1.2-0.5c0.2-0.1,0.5-0.2,0.7-0.1c0.2,0,0.2-0.4,0.4-0.6    c0.1,0,0.2,0,0.2,0c0.5-0.7,1.5-0.8,1.6-1.5c0-0.2-0.5-0.2-0.8-0.2c-0.5-0.1-0.9,0-1.4,0c-0.7,0.2-1.2,0.2-1.8,0.5    C51.4,51.4,51.9,51,52.5,50.9z"/>
		<path style="fill:#E30613;" d="M32.4,68.5C32.3,68.5,32.3,68.5,32.4,68.5C32.3,68.5,32.4,68.5,32.4,68.5z"/>
	</g>
	<g>
		
			<linearGradient id="SVGID_6_" gradientUnits="userSpaceOnUse" x1="83.7551" y1="23.6417" x2="167.0893" y2="23.6417" gradientTransform="matrix(1 8.080583e-03 -8.080583e-03 1 -9.7073 -9.8445)">
			<stop offset="0" style="stop-color:#009FE3"/>
			<stop offset="1" style="stop-color:#E30613"/>
		</linearGradient>
		<path style="fill:none;stroke:url(#SVGID_6_);stroke-width:0.719;stroke-linejoin:round;stroke-miterlimit:10;" d="M74.1,29l0-2    c0-2.1,1.5-4.7,3.4-5.8l34.6-19.9c1.8-1.1,4.9-1.1,6.7,0l34.6,20c1.8,1.1,3.3,3.7,3.3,5.8l0,2.5"/>
		<g>
			
				<linearGradient id="SVGID_7_" gradientUnits="userSpaceOnUse" x1="83.9917" y1="88.1499" x2="167.326" y2="88.1499" gradientTransform="matrix(1 8.080583e-03 -8.080583e-03 1 -9.7073 -9.8445)">
				<stop offset="0" style="stop-color:#E30613"/>
				<stop offset="1" style="stop-color:#009FE3"/>
			</linearGradient>
			<path style="fill:none;stroke:url(#SVGID_7_);stroke-width:0.719;stroke-linejoin:round;stroke-miterlimit:10;" d="M156.6,65.1     l0,2c0,2.1-1.5,4.7-3.4,5.8l-34.6,19.9c-1.8,1.1-4.9,1.1-6.7,0l-34.6-20c-1.8-1.1-3.3-3.7-3.3-5.8l0-2.5"/>
			
				<line style="fill:none;stroke:#1D71B8;stroke-width:0.719;stroke-linejoin:round;stroke-miterlimit:10;" x1="74" y1="64.4" x2="74.1" y2="29"/>
			
				<line style="opacity:0.9;fill:none;stroke:#E30613;stroke-width:0.719;stroke-linejoin:round;stroke-miterlimit:10;" x1="156.7" y1="29.7" x2="156.6" y2="65.1"/>
			
				<linearGradient id="SVGID_8_" gradientUnits="userSpaceOnUse" x1="122.2996" y1="88.1499" x2="167.326" y2="88.1499" gradientTransform="matrix(1 8.080583e-03 -8.080583e-03 1 -9.7073 -9.8445)">
				<stop offset="0" style="stop-color:#E30613"/>
				<stop offset="1" style="stop-color:#009FE3"/>
			</linearGradient>
			<path style="fill:none;stroke:url(#SVGID_8_);stroke-width:0.719;stroke-linejoin:round;stroke-miterlimit:10;" d="M111.9,92.7     c1.8,1.1,4.9,1.1,6.7,0l34.6-19.9c1.8-1.1,3.4-3.7,3.4-5.8l0-2"/>
			
				<linearGradient id="SVGID_9_" gradientUnits="userSpaceOnUse" x1="84.3512" y1="73.5798" x2="84.3512" y2="73.5798" gradientTransform="matrix(1 8.080583e-03 -8.080583e-03 1 -9.7073 -9.8445)">
				<stop offset="0" style="stop-color:#E30613"/>
				<stop offset="1" style="stop-color:#009FE3"/>
			</linearGradient>
			<path style="fill:none;stroke:url(#SVGID_9_);stroke-width:0.719;stroke-linejoin:round;stroke-miterlimit:10;" d="M74,64.4"/>
			
				<line style="fill:none;stroke:#1D71B8;stroke-width:0.719;stroke-linejoin:round;stroke-miterlimit:10;" x1="74.1" y1="29" x2="74" y2="64.4"/>
		</g>
	</g>
</g>
<g id="Calque_6">
</g>
<g id="Calque_4">
</g>
<g id="fond">
</g>
</svg>